<?xml version="1.0" encoding="UTF-8" standalone="no"?>
<svg width="74px" height="74px" viewBox="0 0 74 74" version="1.1" xmlns="http://www.w3.org/2000/svg" xmlns:xlink="http://www.w3.org/1999/xlink">
    <!-- Generator: Sketch 46.2 (44496) - http://www.bohemiancoding.com/sketch -->
    <title>Group 21</title>
    <desc>Created with Sketch.</desc>
    <defs>
        <circle id="path-1" cx="30" cy="30" r="30"></circle>
        <filter x="-18.3%" y="-16.7%" width="136.7%" height="136.7%" filterUnits="objectBoundingBox" id="filter-2">
            <feOffset dx="0" dy="1" in="SourceAlpha" result="shadowOffsetOuter1"></feOffset>
            <feGaussianBlur stdDeviation="3.5" in="shadowOffsetOuter1" result="shadowBlurOuter1"></feGaussianBlur>
            <feColorMatrix values="0 0 0 0 0   0 0 0 0 0   0 0 0 0 0  0 0 0 0.243149909 0" type="matrix" in="shadowBlurOuter1"></feColorMatrix>
        </filter>
    </defs>
    <g id="Page-1" stroke="none" stroke-width="1" fill="none" fill-rule="evenodd">
        <g id="2.6.4.4-copy-11" transform="translate(-1353.000000, -723.000000)">
            <g id="Group-37" transform="translate(747.000000, 484.000000)">
                <g id="Group-21" transform="translate(613.000000, 245.000000)">
                    <g id="Oval">
                        <use fill="black" fill-opacity="1" filter="url(#filter-2)" xlink:href="#path-1"></use>
                        <use fill="#239AE5" fill-rule="evenodd" xlink:href="#path-1"></use>
                    </g>
                    <g id="Chats_Chosen" transform="translate(14.000000, 15.000000)">
                        <path d="M4.96170473,2.10180239 C9.49135991,0.104561011 14.6279116,-0.25957692 19.5161875,0.148698942 C23.6486013,0.66180239 28.7299806,1.57766446 30.6499806,5.8093886 C32.4596358,10.3114576 32.2775668,15.48663 30.9754978,20.0990438 C30.0320496,23.3376645 26.8761875,25.2907679 23.6706703,25.72663 C20.1561875,26.0300783 16.647222,26.5983541 13.105153,26.3555955 C11.6154978,28.0493886 10.0099806,29.6383541 8.52032542,31.3376645 C8.52032542,31.3376645 8.04856761,31.7979985 7.63891648,31.8385764 C7.22926535,31.8791542 6.77135991,31.4259403 6.77135991,31.4259403 C5.44170473,29.7542162 5.98239439,27.5252507 5.92722198,25.5555955 C4.3437737,24.3583541 2.46239439,23.3376645 1.51894611,21.5059403 C-0.0976056111,18.5431817 -0.0534676801,15.0838714 0.034808182,11.80663 C0.222394389,8.11559549 1.35342887,3.85628515 4.96170473,2.10180239 Z" id="Shape-Copy" fill="#FFFFFF"></path>
                        <path d="M8.82758621,8.27586207 C13.8648276,8.29837636 18.902069,8.29837636 23.9393103,8.27586207 C23.9393103,8.6248335 23.9393103,9.32277637 23.9337931,9.6717478 C18.902069,9.64923352 13.8648276,9.64923352 8.83310345,9.6717478 C8.83310345,9.32277637 8.82758621,8.6248335 8.82758621,8.27586207 Z" id="Shape-Copy-2" fill="#239AE5"></path>
                        <path d="M8.83862069,12.1485339 C13.8703448,12.1485339 18.9075862,12.1710482 23.9393103,12.1372768 C23.9393103,12.4862482 23.9448276,13.1841911 23.9448276,13.5331625 C18.9075862,13.4993911 13.8703448,13.5219054 8.82758621,13.5219054 C8.83310345,13.1841911 8.83862069,12.4862482 8.83862069,12.1485339 Z" id="Shape-Copy-3" fill="#239AE5"></path>
                        <path d="M8.83310345,16.0110345 C11.8455172,16.0110345 14.8524138,16.022069 17.8648276,16 C17.8648276,16.342069 17.8648276,17.0262069 17.8703448,17.3682759 C14.857931,17.3462069 11.8455172,17.3462069 8.82758621,17.3682759 C8.83310345,17.0262069 8.83310345,16.342069 8.83310345,16.0110345 Z" id="Shape-Copy-4" fill="#239AE5"></path>
                    </g>
                </g>
            </g>
        </g>
    </g>
</svg>